<svg width="176" height="42" viewBox="0 0 176 42" fill="none" xmlns="http://www.w3.org/2000/svg">
<mask id="mask0_2065_5569" style="mask-type:alpha" maskUnits="userSpaceOnUse" x="0" y="1" width="41" height="40">
<path fill-rule="evenodd" clip-rule="evenodd" d="M27.7951 1H12.3906C8.02598 1 5.25763 1.02222 2.6344 3.62222C0.0111627 6.23333 0 8.99999 0 13.3333V28.6666C0 33.0111 0.0223255 35.7666 2.6344 38.3777C5.25763 40.9888 8.03715 41 12.3906 41H27.7951C32.1597 41 34.9281 40.9888 37.5513 38.3777C40.1634 35.7666 40.1857 33 40.1857 28.6666V13.3333C40.1857 8.98888 40.1634 6.23333 37.5513 3.62222C34.9281 1.01111 32.1486 1 27.7951 1Z" fill="url(#paint0_linear_2065_5569)"/>
</mask>
<g mask="url(#mask0_2065_5569)">
<rect y="1" width="40" height="40" fill="url(#paint1_linear_2065_5569)"/>
<path fill-rule="evenodd" clip-rule="evenodd" d="M9.23229 38.8665C15.6174 38.8665 26.9698 38.8665 26.9698 38.8665C31.0777 38.8665 33.7344 39.0221 36.1902 36.5554C38.3 34.4554 38.1214 30.9221 38.2553 28.1221C35.8777 31.6776 31.513 31.5554 28.1419 31.5554C28.1419 31.5554 12.369 31.5554 6.4751 31.5554C0.581194 31.5665 2.84722 38.8665 9.23229 38.8665Z" fill="#FEF5EB"/>
<path d="M7.37891 32.4888H13.6747V37.1888L10.5268 35.6221L7.37891 37.1888V32.4888Z" fill="#FF3D4D"/>
<path d="M17.2117 14.6616C17.6359 14.9172 18.1271 15.0394 18.6852 15.0394C19.221 15.0394 19.7122 14.9061 20.1364 14.6283C20.5717 14.3505 20.8954 13.9616 21.1298 13.4727C21.3754 12.9727 21.487 12.4061 21.487 11.7839C21.487 11.1394 21.3754 10.5727 21.141 10.095C20.9066 9.61719 20.5829 9.25052 20.1587 8.99497C19.7345 8.73941 19.2433 8.61719 18.6964 8.61719C18.1606 8.61719 17.6694 8.75052 17.2341 9.0283C16.8099 9.30608 16.475 9.69496 16.2406 10.1839C16.0062 10.6839 15.8945 11.2505 15.8945 11.8727C15.8945 12.5172 16.0062 13.0838 16.2406 13.5616C16.4638 14.0394 16.7875 14.4061 17.2117 14.6616ZM16.9773 11.8394C16.9773 11.2727 17.0443 10.7727 17.1894 10.3394C17.3345 9.90608 17.5354 9.57274 17.7922 9.35052C18.0489 9.11719 18.3392 9.00608 18.6629 9.00608C18.9866 9.00608 19.2657 9.11719 19.5336 9.33941C19.8015 9.56163 20.0136 9.88385 20.1698 10.3172C20.3373 10.7394 20.4154 11.2394 20.4154 11.8172C20.4154 12.3838 20.3373 12.8838 20.1922 13.3172C20.0471 13.7505 19.8461 14.0838 19.5894 14.3172C19.3438 14.5394 19.0536 14.6616 18.7187 14.6616C18.395 14.6616 18.1159 14.5505 17.848 14.3283C17.5801 14.1061 17.368 13.7838 17.2006 13.3505C17.0555 12.9061 16.9773 12.4061 16.9773 11.8394Z" fill="#FEF5EB"/>
<path d="M32.0577 23.2391C32.0131 22.8391 32.0019 22.4836 32.0019 22.1725C32.0019 21.9169 32.0131 21.728 32.0243 21.5836L32.0354 21.4503H31.9015H31.7117H31.6001L31.5889 21.5614C31.5554 21.9614 31.4884 22.2503 31.4103 22.4391C31.3322 22.6169 31.2205 22.7391 31.0643 22.828C30.908 22.9058 30.6624 22.9503 30.3275 22.9503H29.7136C29.5127 22.9503 29.3787 22.9391 29.3006 22.9169C29.2447 22.8947 29.2113 22.8614 29.1889 22.7947C29.1666 22.7169 29.1443 22.5836 29.1443 22.3725V20.4725H29.5796C29.7806 20.4725 29.9257 20.528 30.0261 20.6169C30.1266 20.7058 30.1936 20.8614 30.2271 21.0725C30.2605 21.3058 30.2717 21.4391 30.2829 21.4836L30.294 21.5836H30.3945H30.5843H30.7071L30.6959 21.4614C30.6624 20.9503 30.6401 20.5503 30.6401 20.2725V19.8725C30.6401 19.5836 30.6512 19.3169 30.6624 19.0836L30.6736 18.9614H30.5396H30.3499H30.2494L30.2382 19.0614L30.2159 19.228C30.1936 19.4169 30.1601 19.5725 30.1266 19.6836C30.1043 19.7836 30.0485 19.8725 29.948 19.9503C29.8699 20.0169 29.7471 20.0614 29.5685 20.0614H29.1331V18.1947C29.1331 17.9836 29.1554 17.8503 29.1778 17.7725C29.2001 17.7058 29.2336 17.6725 29.2894 17.6614C29.3675 17.6391 29.5015 17.6169 29.7024 17.6169H30.4057C30.6959 17.6169 30.8968 17.6614 31.0196 17.728C31.1312 17.7947 31.2205 17.8947 31.2764 18.0503C31.3322 18.2058 31.388 18.4725 31.4215 18.828L31.4326 18.9391H31.5443H31.734H31.868L31.8457 18.8058C31.8345 18.6836 31.8233 18.5169 31.8233 18.2947C31.8233 18.0058 31.8457 17.6836 31.8791 17.3169L31.8903 17.1836H27.4141V17.5836L27.5257 17.5947C27.7266 17.6058 27.8606 17.628 27.9275 17.6503C27.9945 17.6725 28.028 17.7058 28.0503 17.7725C28.0727 17.8503 28.095 17.9836 28.095 18.1947V22.3503C28.095 22.5614 28.0727 22.6947 28.0503 22.7725C28.028 22.8391 27.9945 22.8725 27.9275 22.8947C27.8606 22.9169 27.7266 22.9391 27.5257 22.9503L27.4141 22.9614V23.3614H32.0577V23.2391Z" fill="#FEF5EB"/>
<path d="M26.8443 14.9284L26.8331 14.7951C26.7885 14.3951 26.7773 14.0395 26.7773 13.7284C26.7773 13.4395 26.7885 13.2173 26.7997 13.0506L26.8108 12.9173H26.6769H26.4871H26.3755L26.3643 13.0284C26.3197 13.4395 26.2638 13.7395 26.1857 13.9506C26.1076 14.1506 25.9959 14.2839 25.8285 14.3728C25.6722 14.4506 25.4266 14.5062 25.0918 14.5062H24.4778C24.2769 14.5062 24.1429 14.4951 24.0648 14.4728C24.009 14.4506 23.9755 14.4173 23.9532 14.3506C23.9308 14.2728 23.9085 14.1395 23.9085 13.9284V9.7284C23.9085 9.51728 23.9308 9.38395 23.9532 9.30617C23.9755 9.23951 24.009 9.20617 24.0648 9.18395C24.1429 9.16173 24.2769 9.13951 24.4778 9.1284L24.5894 9.11728V9.00617V8.83951V8.71729H22.1895V8.85062V9.01728V9.1284L22.3011 9.13951C22.502 9.15062 22.636 9.17284 22.7029 9.19506C22.7699 9.21728 22.8034 9.25062 22.8257 9.31728C22.8481 9.39506 22.8704 9.5284 22.8704 9.73951V13.9062C22.8704 14.1173 22.8481 14.2506 22.8257 14.3284C22.8034 14.3951 22.7699 14.4284 22.7029 14.4506C22.636 14.4728 22.502 14.4951 22.3011 14.5062L22.1895 14.5173V14.6284V14.7951V14.9173L26.8443 14.9284Z" fill="#FEF5EB"/>
<path d="M12.7128 20.5504C12.4896 20.3171 12.1435 20.1504 11.7082 20.0504C11.9873 19.9282 12.2105 19.7615 12.3668 19.5615C12.59 19.2837 12.7017 18.9615 12.7017 18.6171C12.7017 18.1837 12.5342 17.8282 12.1882 17.5615C11.8533 17.2948 11.3845 17.1726 10.7928 17.1726C10.6589 17.1726 8.35938 17.1504 8.35938 17.1504V17.2837V17.4504V17.5615L8.471 17.5726C8.67193 17.5837 8.80588 17.6059 8.87286 17.6282C8.93984 17.6504 8.97332 17.6837 8.99565 17.7504C9.01797 17.8282 9.0403 17.9615 9.0403 18.1726V22.3504C9.0403 22.5615 9.01797 22.6948 8.99565 22.7726C8.97332 22.8393 8.93984 22.8726 8.87286 22.8948C8.80588 22.9171 8.67193 22.9393 8.471 22.9504L8.35938 22.9615V23.0726V23.2393V23.3726C8.35938 23.3726 10.8263 23.3615 10.9826 23.3615C11.418 23.3615 11.7863 23.2948 12.11 23.1504C12.4338 23.0059 12.6793 22.7948 12.8579 22.5282C13.0365 22.2615 13.1258 21.9504 13.1258 21.6171C13.1482 21.1948 13.0031 20.8393 12.7128 20.5504ZM10.0784 18.1726C10.0784 17.9726 10.1008 17.8393 10.1231 17.7504C10.1454 17.6726 10.1901 17.6393 10.2347 17.6059C10.3017 17.5726 10.4133 17.5615 10.5808 17.5615C10.9826 17.5615 11.2394 17.6615 11.3956 17.8282C11.5519 18.0059 11.6412 18.2837 11.6412 18.6948C11.6412 19.0948 11.5519 19.3948 11.3845 19.6282C11.2394 19.8282 10.9603 19.9504 10.5138 19.9504H10.0673V18.1726H10.0784ZM11.697 22.5948C11.4626 22.8171 11.1054 22.9282 10.5919 22.9282C10.4245 22.9282 10.3017 22.9171 10.2347 22.8837C10.1789 22.8615 10.1454 22.8171 10.1231 22.7504C10.1008 22.6726 10.0784 22.5393 10.0784 22.3393V20.3282H10.6701C11.1835 20.3282 11.5296 20.4393 11.7305 20.6393C11.9426 20.8393 12.0542 21.1393 12.0542 21.5615C12.0542 22.0504 11.9314 22.3837 11.697 22.5948Z" fill="#FEF5EB"/>
<path d="M21.1972 20.5504C21.186 20.5504 21.1972 20.5504 21.1972 20.5504C21.186 20.5504 21.186 20.5504 21.1972 20.5504C20.9739 20.3171 20.6279 20.1504 20.1926 20.0504C20.4716 19.9282 20.6949 19.7615 20.8512 19.5615C21.0744 19.2837 21.186 18.9615 21.186 18.6171C21.186 18.1837 21.0186 17.8282 20.6726 17.5615C20.3377 17.2948 19.8688 17.1726 19.2772 17.1726C19.1433 17.1726 16.8438 17.1504 16.8438 17.1504V17.2837V17.4504V17.5615L16.9554 17.5726C17.1563 17.5837 17.2903 17.6059 17.3572 17.6282C17.4242 17.6504 17.4577 17.6837 17.48 17.7504C17.5024 17.8282 17.5247 17.9615 17.5247 18.1726V22.3504C17.5247 22.5615 17.5024 22.6948 17.48 22.7726C17.4577 22.8393 17.4242 22.8726 17.3572 22.8948C17.2903 22.9171 17.1563 22.9393 16.9554 22.9504L16.8438 22.9615V23.0726V23.2393V23.3726C16.8438 23.3726 19.3107 23.3615 19.467 23.3615C19.9023 23.3615 20.2707 23.2948 20.5944 23.1504C20.9181 23.0059 21.1637 22.7948 21.3423 22.5282C21.5209 22.2615 21.6102 21.9504 21.6102 21.6171C21.6214 21.1948 21.4763 20.8393 21.1972 20.5504ZM20.6056 17.6504C20.5944 17.6504 20.5944 17.6504 20.6056 17.6504V17.6504ZM18.5628 18.1726C18.5628 17.9726 18.5851 17.8393 18.6075 17.7504C18.6298 17.6726 18.6744 17.6393 18.7191 17.6059C18.7861 17.5726 18.8977 17.5615 19.0651 17.5615C19.467 17.5615 19.7237 17.6615 19.88 17.8282C20.0363 18.0059 20.1256 18.2837 20.1256 18.6948C20.1256 19.0948 20.0363 19.3948 19.8688 19.6282C19.7237 19.8282 19.4447 19.9504 18.9982 19.9504H18.5516V18.1726H18.5628ZM20.1814 22.5948C19.947 22.8171 19.5898 22.9282 19.0763 22.9282C18.8977 22.9282 18.7861 22.9171 18.7191 22.8837C18.6633 22.8615 18.6298 22.8171 18.6075 22.7504C18.5851 22.6726 18.5628 22.5393 18.5628 22.3393V20.3282H19.1544C19.6679 20.3282 20.014 20.4393 20.2149 20.6393C20.427 20.8393 20.5386 21.1393 20.5386 21.5615C20.5386 22.0504 20.4158 22.3837 20.1814 22.5948Z" fill="#FEF5EB"/>
<path d="M13.7852 17.1504V17.2837V17.4504V17.5615L13.8968 17.5726C14.0977 17.5837 14.2317 17.6059 14.2986 17.6282C14.3656 17.6504 14.3991 17.6837 14.4214 17.7504C14.4438 17.8282 14.4661 17.9615 14.4661 18.1726V22.3504C14.4661 22.5615 14.4438 22.6948 14.4214 22.7726C14.3991 22.8393 14.3656 22.8726 14.2986 22.8948C14.2317 22.9171 14.0977 22.9393 13.8968 22.9504L13.7852 22.9615V23.0726V23.2393V23.3726H16.1851V23.2504V23.0837V22.9726L16.0735 22.9615C15.8726 22.9504 15.7386 22.9282 15.6605 22.9059C15.6047 22.8837 15.5712 22.8504 15.5489 22.7837C15.5265 22.7059 15.5042 22.5726 15.5042 22.3615V18.1837C15.5042 17.9726 15.5265 17.8393 15.5489 17.7615C15.5712 17.6948 15.6047 17.6615 15.6605 17.6393C15.7386 17.6171 15.8726 17.5948 16.0735 17.5837L16.1851 17.5726V17.4615V17.2948V17.1726L13.7852 17.1504Z" fill="#FEF5EB"/>
<path d="M11.6519 14.9283V14.806V14.6394V14.5283L11.5403 14.5172C11.3394 14.506 11.2054 14.4838 11.1273 14.4616C11.0715 14.4394 11.038 14.406 11.0157 14.3394C10.9933 14.2616 10.971 14.1283 10.971 13.9172V12.0061H13.4826V13.906C13.4826 14.1172 13.4603 14.2505 13.438 14.3283C13.4156 14.3949 13.3822 14.4283 13.3152 14.4505C13.2482 14.4727 13.1142 14.4949 12.9133 14.506L12.8017 14.5172V14.6283V14.7949V14.9172H15.2017V14.7838V14.6172V14.506L15.09 14.4949C14.8891 14.4838 14.7552 14.4616 14.677 14.4394C14.6212 14.4172 14.5877 14.3838 14.5654 14.3172C14.5431 14.2394 14.5208 14.1061 14.5208 13.8949V9.72828C14.5208 9.51717 14.5431 9.38383 14.5654 9.30605C14.5877 9.23939 14.6212 9.20605 14.677 9.18383C14.7552 9.16161 14.8891 9.13939 15.09 9.12828L15.2017 9.11717V9.00605V8.83939V8.70605H12.8017V8.82828V8.99494V9.10605L12.9133 9.11717C13.1142 9.12828 13.2482 9.1505 13.3152 9.17272C13.3822 9.19494 13.4156 9.22828 13.438 9.29494C13.4603 9.37272 13.4826 9.50605 13.4826 9.71717V11.5838H10.971V9.72828C10.971 9.51717 10.9933 9.38383 11.0157 9.30605C11.038 9.23939 11.0715 9.20605 11.1273 9.18383C11.2054 9.16161 11.3394 9.13939 11.5403 9.12828L11.6519 9.11717V9.00605V8.83939V8.71717H9.25195V8.8505V9.01717V9.12828L9.36358 9.13939C9.56451 9.1505 9.69846 9.17272 9.76544 9.19494C9.83241 9.21717 9.8659 9.2505 9.88823 9.31717C9.91055 9.39494 9.93288 9.52828 9.93288 9.73939V13.906C9.93288 14.1172 9.91055 14.2505 9.88823 14.3283C9.8659 14.3949 9.83241 14.4283 9.76544 14.4505C9.69846 14.4727 9.56451 14.4949 9.36358 14.506L9.25195 14.5172V14.6283V14.7949V14.9283H11.6519Z" fill="#FEF5EB"/>
<path d="M26.6557 9.20605C26.7227 9.26161 26.8009 9.36161 26.9013 9.5505L28.6092 12.6838V13.906C28.6092 14.1172 28.5869 14.2505 28.5646 14.3283C28.5422 14.3949 28.5087 14.4283 28.4418 14.4505C28.3748 14.4727 28.2408 14.4949 28.0399 14.506L27.9283 14.5172V14.6283V14.7949V14.9283L30.1943 14.9172L30.3171 14.9283V14.806V14.6394V14.5283L30.2055 14.5172C30.0045 14.506 29.8706 14.4838 29.7925 14.4616C29.7366 14.4394 29.7032 14.406 29.6808 14.3394C29.6585 14.2616 29.6362 14.1283 29.6362 13.9172V12.4172L30.9534 9.81716C31.0762 9.58383 31.1878 9.41717 31.2771 9.31717C31.3776 9.20605 31.4669 9.1505 31.545 9.12828L31.6343 9.10605V9.01717V8.8505V8.71717H29.9152L29.7925 8.70605V8.82828V8.99494V9.10605H29.9041C30.1497 9.10605 30.3059 9.1505 30.4064 9.20605C30.4845 9.2505 30.5292 9.31717 30.5292 9.43939C30.5292 9.59494 30.4622 9.81717 30.3171 10.1061L29.3348 12.0394L28.0399 9.57272C27.9841 9.47272 27.9729 9.39494 27.9729 9.32828C27.9729 9.29494 27.9841 9.27272 27.9953 9.2505C28.0064 9.22828 28.0287 9.20605 28.0622 9.19494C28.1292 9.1505 28.2632 9.12828 28.4529 9.12828H28.5757V9.01717V8.83939V8.70605H26.4102V8.83939V9.01717V9.13939H26.5329C26.5441 9.13939 26.5888 9.1505 26.6557 9.20605Z" fill="#FEF5EB"/>
<path d="M26.8345 22.1725C26.8345 21.8836 26.8457 21.6614 26.8568 21.4947L26.868 21.3614H26.7341H26.5443H26.4327L26.4215 21.4725C26.3769 21.8836 26.321 22.1836 26.2429 22.3947C26.1648 22.5947 26.0531 22.728 25.8969 22.8169C25.7406 22.8947 25.495 22.9503 25.1601 22.9503H24.5462C24.3452 22.9503 24.2113 22.9391 24.1331 22.9169C24.0773 22.8947 24.0438 22.8614 24.0215 22.7947C23.9992 22.7169 23.9769 22.5836 23.9769 22.3725V18.1947C23.9769 17.9836 23.9992 17.8503 24.0215 17.7725C24.0438 17.7058 24.0773 17.6725 24.1331 17.6503C24.2113 17.628 24.3452 17.6058 24.5462 17.5947L24.6578 17.5836V17.4725V17.3058V17.1836H22.2578V17.3169V17.4836V17.5947L22.3694 17.6058C22.5704 17.6169 22.7043 17.6391 22.7713 17.6614C22.8383 17.6836 22.8718 17.7169 22.8941 17.7836C22.9164 17.8614 22.9387 17.9947 22.9387 18.2058V22.3503C22.9387 22.5614 22.9164 22.6947 22.8941 22.7725C22.8718 22.8391 22.8383 22.8725 22.7713 22.8947C22.7043 22.9169 22.5704 22.9391 22.3694 22.9503L22.2578 22.9614V23.0725V23.2391V23.3614H26.9015L26.8903 23.228C26.8568 22.8391 26.8345 22.4836 26.8345 22.1725Z" fill="#FEF5EB"/>
</g>
<path d="M152.13 15.7314C153.212 15.7314 154.15 15.9162 154.938 16.29C155.727 16.6603 156.39 17.1975 156.922 17.8936V17.8906C157.454 18.5868 157.856 19.427 158.12 20.4082C158.384 21.3932 158.519 22.4897 158.519 23.708C158.519 25.3967 158.25 26.8598 157.718 28.0967C157.186 29.3335 156.416 30.2891 155.411 30.9668C154.407 31.6444 153.224 31.9814 151.862 31.9814C151.211 31.9814 150.571 31.8746 149.938 31.6709C149.306 31.4672 148.725 31.1409 148.193 30.7002C147.892 30.4521 147.621 30.1553 147.364 29.8184V37.2256H143.636V16.2012H146.717L147.021 18.542C147.58 17.6976 148.234 17.027 148.993 16.5566C149.882 16.0048 150.928 15.7314 152.13 15.7314ZM169.612 15.7314C170.695 15.7314 171.633 15.916 172.422 16.29C173.211 16.6604 173.873 17.1974 174.405 17.8936C174.937 18.5897 175.335 19.4308 175.603 20.4121V20.4082C175.867 21.3932 176.001 22.4897 176.001 23.708C176.001 25.3967 175.733 26.8598 175.201 28.0967C174.669 29.3335 173.899 30.2891 172.895 30.9668C171.89 31.6445 170.706 31.9814 169.345 31.9814C168.694 31.9814 168.053 31.8783 167.421 31.6709C166.789 31.4672 166.209 31.1407 165.677 30.7002C165.375 30.4521 165.103 30.1554 164.847 29.8184V37.2256H161.119V16.2012H164.199L164.505 18.542C165.063 17.6977 165.718 17.0269 166.477 16.5566C167.366 16.0051 168.411 15.7315 169.612 15.7314ZM80.7139 18.0166C81.2161 17.3945 81.7744 16.8906 82.3994 16.5166C83.2663 15.9944 84.2934 15.7354 85.4766 15.7354C86.3247 15.7354 87.0878 15.8572 87.7686 16.1016C88.4491 16.3459 89.0443 16.6939 89.5576 17.1455C90.071 17.5973 90.4987 18.1459 90.8447 18.7939L90.8486 18.7979C91.1946 19.4459 91.4517 20.1791 91.6191 21.0049C91.7865 21.8307 91.8721 22.7345 91.8721 23.7158C91.8721 24.9897 91.7191 26.1381 91.4141 27.1602C91.109 28.1821 90.6623 29.052 90.082 29.7666C89.498 30.4813 88.7989 31.0336 87.9805 31.415C87.1582 31.7965 86.2351 31.9893 85.2119 31.9893C84.1889 31.9892 83.2256 31.7406 82.3291 31.252C81.6446 30.8779 81.0416 30.3113 80.5244 29.5596L80.2529 31.5186H76.9863V10.4951H80.7139V18.0166ZM108.316 15.7314C109.499 15.7314 110.53 15.9125 111.408 16.2754C112.283 16.6383 113.015 17.1537 113.596 17.8203L113.604 17.8164C114.184 18.4829 114.619 19.2827 114.905 20.2158C115.188 21.1491 115.334 22.1863 115.334 23.3232V24.708H104.384C104.417 25.2561 104.485 25.7636 104.593 26.2266C104.753 26.9041 104.994 27.4745 105.317 27.9336C105.645 28.3928 106.055 28.7415 106.546 28.9785C107.037 29.2117 107.621 29.3301 108.291 29.3301C109.396 29.33 110.203 29.1184 110.717 28.6963C111.226 28.2741 111.572 27.7003 111.751 26.9746H115.121C114.842 28.5262 114.147 29.7481 113.034 30.6406C111.922 31.5331 110.348 31.9814 108.316 31.9814C107.133 31.9814 106.077 31.8039 105.15 31.4521C104.224 31.1003 103.439 30.5742 102.799 29.8779C102.155 29.1817 101.671 28.3372 101.348 27.3447C101.024 26.356 100.86 25.2892 100.86 23.9746C100.86 22.6601 101.039 21.4937 101.393 20.4717C101.75 19.4496 102.256 18.5862 102.918 17.8789C103.576 17.1753 104.365 16.6383 105.284 16.2754C106.203 15.9125 107.211 15.7315 108.316 15.7314ZM73.8789 31.5146H70.1514V16.2012H73.8789V31.5146ZM98.2266 31.5107H94.498V10.4873H98.2266V31.5107ZM142.065 31.5107H138.014L136.139 26.3008H127.998L126.123 31.5107H122.217L130.264 10.4873H134.048L142.065 31.5107ZM59.7559 10.4121C61.6719 10.4121 63.1675 10.6453 64.2539 11.1045C65.3365 11.5674 66.1066 12.2004 66.5605 13.0039C67.0144 13.8074 67.2421 14.7408 67.2422 15.7998C67.2422 16.9182 66.9441 17.9115 66.3525 18.7744C65.9284 19.3927 65.2734 19.9033 64.3955 20.3105C65.0279 20.5624 65.5712 20.8588 65.999 21.2031H66.0029C66.6725 21.7437 67.152 22.3625 67.4385 23.0586C67.725 23.7548 67.8672 24.5069 67.8672 25.3105C67.8672 26.5102 67.6027 27.5692 67.082 28.4912C66.5574 29.4133 65.7233 30.1358 64.5811 30.6543C63.4352 31.1764 61.9356 31.4355 60.083 31.4355H52.0059V10.4121H59.7559ZM84.5234 18.7305C83.7534 18.7305 83.0836 18.9125 82.5107 19.2754C81.9379 19.6383 81.4914 20.1646 81.1641 20.8496C80.8405 21.5383 80.6768 22.3714 80.6768 23.3525V24.208C80.6768 25.0337 80.7658 25.7449 80.9443 26.3447C81.1229 26.9446 81.3684 27.4414 81.6846 27.834C82.0007 28.2301 82.3842 28.5189 82.8379 28.7041C83.2918 28.893 83.8059 28.9854 84.3789 28.9854C84.9109 28.9853 85.402 28.8892 85.8447 28.7041C86.2874 28.5152 86.6779 28.2112 87.0127 27.7891C87.3475 27.3669 87.6046 26.83 87.7832 26.1709L87.7793 26.167C87.9541 25.5116 88.043 24.7374 88.043 23.7969C88.043 22.8563 87.9507 22.0601 87.7646 21.4121C87.5749 20.7642 87.3177 20.246 86.9941 19.8535C86.6706 19.4611 86.295 19.1758 85.8711 18.998C85.4469 18.8203 84.9959 18.7305 84.5234 18.7305ZM151.185 18.7305C150.336 18.7305 149.626 18.9268 149.053 19.3193C148.48 19.7119 148.052 20.2569 147.766 20.9531C147.479 21.6493 147.338 22.4491 147.338 23.3525V24.208C147.338 24.9337 147.413 25.5929 147.562 26.1816C147.71 26.7705 147.937 27.278 148.242 27.7002C148.547 28.1224 148.93 28.4415 149.396 28.6562C149.857 28.871 150.404 28.9785 151.036 28.9785C151.765 28.9785 152.401 28.8073 152.944 28.4629C153.488 28.1222 153.916 27.5673 154.232 26.8008V26.7969C154.549 26.0303 154.704 25.0483 154.704 23.793C154.704 22.5377 154.544 21.5416 154.217 20.8047C153.889 20.0715 153.462 19.538 152.93 19.2158C152.398 18.8937 151.817 18.7305 151.185 18.7305ZM168.664 18.7305C167.816 18.7305 167.105 18.9269 166.532 19.3193C165.959 19.7119 165.532 20.2569 165.245 20.9531C164.959 21.6493 164.817 22.449 164.817 23.3525V24.208C164.817 24.9337 164.891 25.5929 165.04 26.1816C165.189 26.7703 165.416 27.2781 165.721 27.7002C166.026 28.1223 166.409 28.4415 166.874 28.6562C167.335 28.871 167.883 28.9785 168.516 28.9785C169.245 28.9785 169.881 28.8072 170.424 28.4629C170.967 28.1222 171.395 27.5671 171.711 26.8008V26.7969C172.027 26.0303 172.184 25.0484 172.184 23.793C172.184 22.5377 172.02 21.5416 171.696 20.8047C171.369 20.0715 170.941 19.538 170.409 19.2158C169.877 18.8936 169.297 18.7305 168.664 18.7305ZM55.6445 28.458H59.8457C60.9503 28.458 61.8133 28.3326 62.4346 28.0771C63.0558 27.8217 63.488 27.455 63.7373 26.9736V26.9697C63.9829 26.4883 64.1055 25.9137 64.1055 25.2471C64.1054 24.5215 63.9676 23.9143 63.6924 23.4219C63.4171 22.933 62.9812 22.5628 62.3896 22.3184C61.7981 22.074 60.9985 21.9512 59.9941 21.9512H55.6445V28.458ZM129.018 23.1191H135.09L132.043 14.542L129.018 23.1191ZM108.287 18.3232C107.517 18.3232 106.877 18.4604 106.363 18.7344C105.85 19.0084 105.444 19.3975 105.15 19.8975V19.8936C104.853 20.3935 104.648 20.9825 104.529 21.6602C104.496 21.8601 104.477 22.0792 104.451 22.2939H111.858C111.832 21.9199 111.795 21.5712 111.747 21.249C111.647 20.6121 111.472 20.0788 111.215 19.6455C110.958 19.216 110.594 18.886 110.121 18.6602C109.649 18.438 109.057 18.3233 108.287 18.3232ZM55.6484 19.0332H59.7598C60.6452 19.0332 61.3636 18.9257 61.918 18.7109C62.4684 18.4961 62.8742 18.1734 63.1309 17.7402C63.3837 17.3107 63.5137 16.7662 63.5137 16.1221C63.5136 15.4778 63.3794 14.956 63.1152 14.5635C62.8474 14.1709 62.4162 13.874 61.8135 13.6777L61.8174 13.6709C61.2147 13.4783 60.4108 13.3779 59.4062 13.3779H55.6484V19.0332ZM72.0156 9.9873C72.6479 9.98737 73.1758 10.1801 73.585 10.5576C73.9979 10.9354 74.207 11.428 74.207 12.0205C74.207 12.613 73.9979 13.0984 73.585 13.4688C73.1758 13.8351 72.6478 14.0204 72.0156 14.0205C71.3832 14.0205 70.8545 13.8353 70.4453 13.4688C70.0323 13.1021 69.8242 12.613 69.8242 12.0205C69.8242 11.428 70.0323 10.9354 70.4453 10.5576C70.8546 10.1836 71.3832 9.99121 72.0156 9.99121V9.9873Z" fill="#F6EFEE"/>
<defs>
<linearGradient id="paint0_linear_2065_5569" x1="20.0929" y1="0.999994" x2="20.0929" y2="41" gradientUnits="userSpaceOnUse">
<stop stop-color="#C93D34"/>
<stop offset="1" stop-color="#7A2629"/>
</linearGradient>
<linearGradient id="paint1_linear_2065_5569" x1="20" y1="0.999994" x2="20" y2="41" gradientUnits="userSpaceOnUse">
<stop stop-color="#C93D34"/>
<stop offset="1" stop-color="#7A2629"/>
</linearGradient>
</defs>
</svg>
